<svg xmlns="http://www.w3.org/2000/svg" viewBox="0 0 1000 1000" xml:space="preserve"><switch><g><circle fill="#382B73" cx="500" cy="500" r="398"/><circle fill="#473080" cx="500" cy="500" r="344.3"/><path fill="#382B73" d="M711.5 336.4v-20c0-16.2-13.1-29.3-29.3-29.3H317.8c-16.2 0-29.3 13.1-29.3 29.3V701c0 15.2 14 27.4 31.3 27.4h143.4l2.8 19.2c.8 5.6 5.6 9.8 11.3 9.8h45.3c5.7 0 10.5-4.2 11.3-9.8l2.8-19.2h143.4c17.3 0 31.3-12.3 31.3-27.4V336.6c.1-.1.1-.1.1-.2z"/><g><path fill="#136DA0" d="M682.2 686.5H317.8c-16.2 0-29.3-13.1-29.3-29.3V296.5c0-16.2 13.1-29.3 29.3-29.3h364.3c16.2 0 29.3 13.1 29.3 29.3v360.7c.1 16.2-13 29.3-29.2 29.3z"/><path fill="#FEDE3A" d="M711.5 316.6V681c0 15.1-14 27.5-31.3 27.5H319.8c-17.3 0-31.3-12.3-31.3-27.5V316.6c0-7.3 3.3-14 8.6-18.9l.4-.4c5.7-5.1 13.6-8.2 22.3-8.2h360.4c8.7 0 16.6 3.1 22.3 8.2.1.1.3.2.4.4 5.3 4.9 8.6 11.6 8.6 18.9z"/><path fill="#F7CB15" d="M711.5 670v11c0 15.1-14 27.5-31.3 27.5H319.8c-17.3 0-31.3-12.3-31.3-27.5v-11c0 15.1 14 27.4 31.3 27.4h360.4c17.3.1 31.3-12.2 31.3-27.4z"/><path fill="#1CAEE4" d="M711.5 351.5h-423v-33.1c0-16.2 13.1-29.3 29.3-29.3h364.3c16.2 0 29.3 13.1 29.3 29.3v33.1z"/><path fill="#FFF335" d="M288.5 351.5h422.9v23.2H288.5z"/><path fill="#E7AD27" d="M655.4 504.4c0-1.9-.5-3.9-1.5-5.7l-22.7-39.3c-2.8-4.9-8.9-7-14.2-4.9l-42.5 17c-9.9-8.4-21.3-15.2-33.8-19.9l-6.7-46.4c-.8-5.6-5.6-9.8-11.3-9.8h-45.3c-5.7 0-10.5 4.2-11.3 9.8l-6.7 46.4c-12.1 4.6-23.3 11.2-33.1 19.4l-43-17.1c-5.3-2.1-11.3 0-14.2 4.9L346.3 498c-1.2 2-1.6 4.2-1.5 6.4v25.7h-.2v8.5h.2v.7l.1-.1c.4 2.9 1.8 5.6 4.3 7.5l36 28.4c-.2 2-.3 4.1-.3 6.1L350 608.7c-2.9 2.2-4.4 5.6-4.4 9V643h-.7v8.1h.7v.5c0 1.9.5 3.9 1.5 5.7l16.7 29 5.9 10.3c.1.2.3.5.4.7 3 4.4 8.7 6.2 13.7 4.2l10.6-4.2 27.5-11 6.6-2.6c1.1.9 2.3 1.8 3.5 2.6 5.8 4.2 11.9 7.9 18.4 11 2.9 1.4 5.8 2.6 8.8 3.8l1 7.2h79.4l1-7.2c3-1.1 5.9-2.4 8.8-3.8 6.5-3.1 12.6-6.8 18.4-11 1.4-1 2.8-2.1 4.1-3.2l7.9 3.2 27.5 11 8.8 3.5c4.8 1.9 10.1.4 13.2-3.5.4-.4.7-.9 1-1.4l5.5-9.6 17.2-29.7c1.1-2 1.6-4.2 1.5-6.3V617.7c.2-3.7-1.3-7.3-4.3-9.7L615 580.3c-.1-1.5-.1-3-.3-4.4l36.1-28.5c2.8-2.2 4.3-5.4 4.4-8.7l.2-34.3zm-155.4 34c24.5 0 45.2 16 52.3 38-7.2 22.1-27.9 38-52.3 38s-45.2-16-52.3-38c7.1-22 27.8-38 52.3-38z"/><path fill="#A72973" d="M655.4 518.8v-34.3c0-1.9-.5-3.9-1.5-5.7l-22.7-39.3c-2.8-4.9-8.9-7-14.2-4.9l-42.5 17c-9.9-8.4-21.3-15.2-33.8-19.9l-6.7-46.4c-.8-5.6-5.6-9.8-11.3-9.8h-45.3c-5.7 0-10.5 4.2-11.3 9.8l-6.7 46.4c-12.2 4.6-23.3 11.2-33.1 19.4l-43-17.1c-5.3-2.1-11.3 0-14.2 4.9L346.3 478c-1.2 2-1.6 4.2-1.5 6.4h-.1v34.9l11.6-13.3v-7.6l29.7 23.4c-.9 5.7-1.3 11.6-1.3 17.6 0 7 .7 13.8 1.8 20.4l-36.7 28.9c-2.8 2.2-4.4 5.6-4.4 9v34l10.4-12.9 13.8 23.9c2.8 4.9 8.9 7 14.2 4.9l44.7-17.8c9.2 7.3 19.5 13.2 30.6 17.4l6.7 46.4c.8 5.6 5.6 9.8 11.3 9.8h45.3c5.7 0 10.5-4.2 11.3-9.8l6.7-46.4c11.4-4.3 22-10.4 31.3-17.9l44.2 17.6c5.3 2.1 11.3 0 14.2-4.9l13.4-23.2 10.8 12.6v-33.7c.2-3.7-1.3-7.3-4.3-9.7l-36.8-29a116.388 116.388 0 0 0 .5-36.5l29.8-23.5v6.9l11.9 12.9zM500 594.5c-30.4 0-55-24.6-55-55s24.6-55 55-55 55 24.6 55 55c0 30.3-24.6 55-55 55z"/><path fill="#F06EA9" d="m653.9 504.1-22.7-39.3c-2.8-4.9-8.9-7-14.2-4.9l-42.5 17c-9.9-8.4-21.3-15.2-33.8-19.9l-6.7-46.4c-.8-5.6-5.6-9.8-11.3-9.8h-45.3c-5.7 0-10.5 4.2-11.3 9.8l-6.7 46.4c-12.2 4.6-23.3 11.2-33.1 19.4l-43-17.1c-5.3-2.1-11.3 0-14.2 4.9l-22.7 39.3c-1.2 2.1-1.7 4.5-1.5 6.8h-.2v8.5h5.3l36.2 28.5c-.9 5.7-1.3 11.6-1.3 17.6 0 7 .7 13.8 1.8 20.4L350 614.2c-2.9 2.2-4.4 5.6-4.4 9h-.7v8.1h3.7l21.3 36.8c2.8 4.9 8.9 7 14.2 4.9l44.7-17.8c9.2 7.3 19.5 13.2 30.6 17.4L466 719c.8 5.6 5.6 9.8 11.3 9.8h45.3c5.7 0 10.5-4.2 11.3-9.8l6.7-46.4c11.4-4.3 22-10.4 31.3-17.9l44.2 17.6c5.3 2.1 11.3 0 14.2-4.9l20.8-36.1h3.3v-8.1c.2-3.7-1.3-7.4-4.3-9.8l-36.8-29a116.388 116.388 0 0 0 .5-36.5l37-29.2c.1 0 .1-.1.2-.1h4.2v-8.5c.2-2-.2-4.1-1.3-6zM500 619.8c-30.4 0-55-24.6-55-55s24.6-55 55-55 55 24.6 55 55-24.6 55-55 55z"/><path fill="#EF5A9D" d="m650.3 622.1-36.8-29a116.388 116.388 0 0 0 .5-36.5l37-29.2c4.5-3.5 5.7-9.8 2.8-14.7l-22.7-39.3c-2.8-4.9-8.9-7-14.2-4.9l-42.5 17c-9.9-8.4-21.3-15.2-33.8-19.9l-6.7-46.4c-.8-5.6-5.6-9.8-11.3-9.8h-45.3c-5.7 0-10.5 4.2-11.3 9.8l-6.7 46.4c-12.2 4.6-23.3 11.2-33.1 19.4l-43-17.1c-5.3-2.1-11.3 0-14.2 4.9L346.3 512c-2.8 4.9-1.6 11.2 2.8 14.7l36.9 29.1c-.9 5.7-1.3 11.6-1.3 17.6 0 7 .7 13.8 1.8 20.4l-36.7 28.9c-4.5 3.5-5.7 9.8-2.8 14.7l22.7 39.3c2.8 4.9 8.9 7 14.2 4.9l44.7-17.8c9.2 7.3 19.5 13.2 30.6 17.4l6.7 46.4c.8 5.6 5.6 9.8 11.3 9.8h45.3c5.7 0 10.5-4.2 11.3-9.8l6.7-46.4c11.4-4.3 22-10.4 31.3-17.9l44.2 17.6c5.3 2.1 11.3 0 14.2-4.9l22.7-39.3c3.1-4.8 1.9-11.1-2.6-14.6zM500 628.4c-30.4 0-55-24.6-55-55s24.6-55 55-55 55 24.6 55 55-24.6 55-55 55z"/><path fill="#E43D91" d="M500 479.1c-52.1 0-94.3 42.2-94.3 94.3s42.2 94.3 94.3 94.3 94.3-42.2 94.3-94.3-42.2-94.3-94.3-94.3zm0 172.9c-43.4 0-78.5-35.2-78.5-78.5S456.7 495 500 495c43.4 0 78.5 35.2 78.5 78.5S543.4 652 500 652z"/><g><circle fill="#FFF" cx="328.5" cy="322.6" r="12.2"/></g><g><circle fill="#FFF" cx="373.5" cy="322.6" r="12.2"/></g><g><circle fill="#FFF" cx="418.6" cy="322.6" r="12.2"/></g><g><path fill="#FFF" d="m616.7 302.5-.3-.8-.3.8h-2.5l-13.8 36.4h7.5l3.3-9h11.6l3.3 9h7.4l-13.8-36.4h-2.4zm-3.6 20.8 3.4-9.1 3.4 9.1h-6.8zM659.6 305.8c-1.1-1-2.5-1.9-4.1-2.4-1.6-.5-3.4-.8-5.4-.8H637V339h7v-13.1h6.1c2 0 3.8-.2 5.3-.7 1.6-.5 3-1.3 4.2-2.3 1.2-1 2-2.3 2.6-3.8.6-1.4.8-3 .8-4.8 0-1.7-.3-3.2-.8-4.7-.6-1.5-1.5-2.8-2.6-3.8zm-9.5 13.4H644v-10.1h6.1c1.2 0 2.1.1 2.9.4.7.3 1.3.6 1.7 1.1.4.4.7 1 .9 1.5.2.7.3 1.4.3 2.1 0 .7-.1 1.4-.3 2.1-.2.6-.5 1-.9 1.5-.4.4-1 .7-1.7 1-.8.3-1.8.4-2.9.4zM669.9 302.5h7v36.4h-7z"/></g></g></g></switch></svg>